<?xml version="1.0" encoding="UTF-8" standalone="no"?><!DOCTYPE svg PUBLIC "-//W3C//DTD SVG 1.1//EN" "http://www.w3.org/Graphics/SVG/1.1/DTD/svg11.dtd"><svg width="100%" height="100%" viewBox="0 0 17 12" version="1.1" xmlns="http://www.w3.org/2000/svg" xmlns:xlink="http://www.w3.org/1999/xlink" xml:space="preserve" style="fill-rule:evenodd;clip-rule:evenodd;stroke-linecap:round;stroke-linejoin:round;stroke-miterlimit:1.5;"><rect id="firat" x="0" y="0" width="16.75" height="11.167" style="fill:none;"/><clipPath id="_clip1"><rect x="0" y="0" width="16.75" height="11.167"/></clipPath><g clip-path="url(#_clip1)"><g id="firat1"><g id="F"><path d="M0,10.236l8.47,0" style="fill:none;stroke:#000;stroke-width:0.28px;"/><path d="M8.47,0.931l0,10.236" style="fill:none;stroke:#000;stroke-width:0.28px;"/><path d="M0,1.861l12.706,0" style="fill:none;stroke:#000;stroke-width:0.28px;"/><path d="M1.694,0l0,11.167" style="fill:none;stroke:#000;stroke-width:0.28px;"/><path d="M11.012,5.583l-2.542,0" style="fill:none;stroke:#000;stroke-width:0.28px;"/></g><g id="i"><path d="M9.317,6.514l0,0.072" style="fill:none;stroke:#000;stroke-width:0.28px;"/><path d="M9.317,7.258l0,2.978" style="fill:none;stroke:#000;stroke-width:0.28px;"/></g><path id="r" d="M10.165,7.345l0,2.891l0,-2.43c0,0 1.544,-1.318 2.541,0.104" style="fill:none;stroke:#000;stroke-width:0.28px;"/><g id="a"><path d="M14.587,8.747c0,0 0.005,-1.489 -1.355,-1.489" style="fill:none;stroke:#000;stroke-width:0.28px;"/><path d="M12.554,10.236c0,0 -0.547,-2.074 2.033,-1.489c0.028,0.006 0,1.489 0,1.489l-2.033,0Z" style="fill:none;stroke:#000;stroke-width:0.28px;"/></g><g id="t"><path d="M15.247,3.722l0,5.518c0,0 -0.091,0.996 1.27,0.996" style="fill:none;stroke:#000;stroke-width:0.28px;"/><path d="M13.976,5.583l2.541,0" style="fill:none;stroke:#000;stroke-width:0.28px;"/></g></g></g></svg>