<?xml version="1.0" encoding="UTF-8" standalone="no"?><!DOCTYPE svg PUBLIC "-//W3C//DTD SVG 1.1//EN" "http://www.w3.org/Graphics/SVG/1.1/DTD/svg11.dtd"><svg width="100%" height="100%" viewBox="0 0 273 153" version="1.1" xmlns="http://www.w3.org/2000/svg" xmlns:xlink="http://www.w3.org/1999/xlink" xml:space="preserve" style="fill-rule:evenodd;clip-rule:evenodd;stroke-linejoin:round;stroke-miterlimit:1.41421;"><rect id="firat" x="0" y="0" width="272.188" height="151.919" style="fill:none;"/><clipPath id="_clip1"><rect x="0" y="0" width="272.188" height="151.919"/></clipPath><g clip-path="url(#_clip1)"><g id="firat1"><g id="F"><rect x="-6.252" y="120.346" width="113.784" height="12.505"/><rect x="96.325" y="6.407" width="12.505" height="151.764"/><rect x="-6.252" y="31.727" width="185.361" height="12.505"/><rect x="29.455" y="-6.252" width="12.505" height="164.423"/><rect x="96.325" y="69.707" width="59.736" height="12.505"/></g><g id="i"><rect x="129.841" y="92.495" width="12.505" height="53.016"/></g><path id="r" d="M161.823,93.671l0,1.406l0.255,-0.101l0.179,-0.069l0.174,-0.067l0.175,-0.066l0.176,-0.066l0.177,-0.065l0.179,-0.064l0.179,-0.064l0.181,-0.064l0.182,-0.062l0.183,-0.063l0.184,-0.061l0.185,-0.061l0.186,-0.061l0.187,-0.059l0.189,-0.059l0.189,-0.058l0.191,-0.058l0.192,-0.057l0.192,-0.056l0.194,-0.055l0.195,-0.054l0.196,-0.053l0.196,-0.053l0.198,-0.051l0.199,-0.051l0.2,-0.049l0.201,-0.049l0.202,-0.048l0.203,-0.046l0.204,-0.046l0.205,-0.044l0.206,-0.044l0.207,-0.042l0.208,-0.041l0.209,-0.04l0.21,-0.039l0.211,-0.037l0.211,-0.036l0.213,-0.035l0.214,-0.034l0.214,-0.032l0.216,-0.031l0.216,-0.03l0.218,-0.028l0.218,-0.026l0.219,-0.026l0.22,-0.023l0.221,-0.022l0.222,-0.021l0.222,-0.019l0.224,-0.017l0.224,-0.016l0.225,-0.014l0.226,-0.013l0.227,-0.01l0.227,-0.009l0.228,-0.007l0.229,-0.005l0.23,-0.004l0.231,-0.001l0.231,0l0.232,0.002l0.232,0.005l0.234,0.006l0.234,0.008l0.234,0.011l0.236,0.012l0.236,0.015l0.236,0.017l0.237,0.019l0.238,0.021l0.238,0.023l0.239,0.026l0.239,0.028l0.239,0.03l0.241,0.033l0.24,0.035l0.241,0.037l0.242,0.04l0.241,0.043l0.242,0.045l0.243,0.047l0.242,0.05l0.243,0.053l0.244,0.055l0.243,0.058l0.244,0.06l0.243,0.063l0.244,0.066l0.244,0.069l0.244,0.071l0.244,0.075l0.244,0.077l0.244,0.079l0.244,0.083l0.244,0.086l0.243,0.088l0.244,0.091l0.243,0.094l0.243,0.098l0.243,0.1l0.242,0.103l0.242,0.106l0.242,0.109l0.241,0.112l0.241,0.115l0.241,0.118l0.24,0.121l0.239,0.124l0.239,0.127l0.238,0.131l0.238,0.133l0.236,0.136l0.237,0.14l0.235,0.142l0.235,0.146l0.234,0.148l0.233,0.152l0.232,0.155l0.232,0.158l0.23,0.161l0.23,0.164l0.228,0.168l0.228,0.17l0.226,0.173l0.226,0.177l0.225,0.18l0.223,0.182l0.222,0.186l0.221,0.189l0.22,0.192l0.219,0.195l0.218,0.198l0.217,0.201l0.215,0.205l0.214,0.207l0.213,0.211l0.211,0.213l0.21,0.217l0.209,0.219l0.208,0.223l0.206,0.226l0.205,0.229l0.204,0.232l0.202,0.235l0.201,0.238l0.2,0.241l0.198,0.244l0.197,0.247l4.026,5.155l-9.856,7.697l-3.989,-5.109l-0.123,-0.154l-0.123,-0.152l-0.123,-0.148l-0.123,-0.146l-0.123,-0.142l-0.123,-0.14l-0.122,-0.137l-0.123,-0.134l-0.122,-0.131l-0.122,-0.129l-0.122,-0.125l-0.122,-0.123l-0.122,-0.121l-0.121,-0.117l-0.121,-0.115l-0.122,-0.113l-0.121,-0.11l-0.12,-0.108l-0.121,-0.105l-0.12,-0.103l-0.121,-0.1l-0.12,-0.098l-0.119,-0.096l-0.12,-0.094l-0.119,-0.091l-0.12,-0.09l-0.119,-0.087l-0.119,-0.085l-0.119,-0.083l-0.118,-0.081l-0.119,-0.079l-0.118,-0.077l-0.118,-0.075l-0.118,-0.073l-0.118,-0.072l-0.118,-0.069l-0.118,-0.068l-0.118,-0.066l-0.117,-0.065l-0.118,-0.062l-0.118,-0.061l-0.117,-0.059l-0.118,-0.058l-0.117,-0.056l-0.118,-0.055l-0.117,-0.053l-0.118,-0.051l-0.117,-0.05l-0.118,-0.049l-0.118,-0.047l-0.118,-0.046l-0.118,-0.044l-0.118,-0.043l-0.118,-0.041l-0.118,-0.04l-0.119,-0.039l-0.118,-0.037l-0.119,-0.037l-0.119,-0.034l-0.119,-0.034l-0.12,-0.032l-0.12,-0.031l-0.119,-0.03l-0.121,-0.029l-0.12,-0.027l-0.12,-0.026l-0.121,-0.025l-0.122,-0.024l-0.121,-0.022l-0.122,-0.021l-0.122,-0.021l-0.122,-0.019l-0.122,-0.018l-0.123,-0.016l-0.123,-0.016l-0.124,-0.014l-0.123,-0.014l-0.124,-0.012l-0.125,-0.011l-0.124,-0.01l-0.125,-0.009l-0.125,-0.007l-0.126,-0.007l-0.126,-0.006l-0.126,-0.004l-0.126,-0.004l-0.127,-0.002l-0.127,-0.001l-0.127,0l-0.127,0l-0.128,0.002l-0.128,0.003l-0.128,0.004l-0.128,0.005l-0.129,0.006l-0.128,0.007l-0.13,0.008l-0.129,0.009l-0.129,0.011l-0.13,0.011l-0.129,0.012l-0.13,0.013l-0.13,0.014l-0.13,0.015l-0.13,0.015l-0.131,0.017l-0.13,0.018l-0.131,0.019l-0.13,0.019l-0.131,0.021l-0.13,0.021l-0.131,0.023l-0.131,0.023l-0.131,0.024l-0.13,0.025l-0.131,0.026l-0.131,0.027l-0.13,0.027l-0.131,0.028l-0.13,0.03l-0.13,0.029l-0.13,0.031l-0.13,0.032l-0.13,0.032l-0.13,0.033l-0.13,0.034l-0.129,0.034l-0.129,0.035l-0.129,0.036l-0.129,0.037l-0.129,0.037l-0.128,0.038l-0.128,0.039l-0.127,0.039l-0.128,0.04l-0.127,0.04l-0.126,0.041l-0.127,0.042l-0.126,0.042l-0.125,0.043l-0.125,0.043l-0.125,0.044l-0.125,0.044l-0.124,0.045l-0.123,0.045l-0.123,0.046l-0.123,0.046l-0.122,0.047l-0.115,0.045l-0.248,0.097l-0.239,0.097l-0.237,0.099l-0.234,0.099l-0.232,0.1l-0.229,0.102l-0.226,0.102l-0.224,0.104l-0.22,0.103l-0.218,0.104l-0.214,0.105l-0.21,0.105l-0.208,0.104l-0.203,0.105l-0.2,0.104l-0.197,0.104l-0.192,0.104l-0.188,0.103l-0.185,0.102l-0.18,0.101l-0.176,0.1l-0.171,0.099l-0.167,0.097l-0.012,0.008l0,35.989l-12.505,0l0,-51.288l12.505,0Z"/><g id="a"><path d="M206.378,92.496l0.269,0.003l0.267,0.006l0.266,0.008l0.264,0.01l0.263,0.013l0.262,0.015l0.261,0.017l0.259,0.02l0.258,0.022l0.257,0.024l0.256,0.026l0.254,0.028l0.252,0.031l0.252,0.033l0.25,0.036l0.249,0.037l0.247,0.04l0.246,0.042l0.245,0.044l0.243,0.047l0.242,0.048l0.241,0.051l0.239,0.053l0.238,0.055l0.236,0.057l0.235,0.06l0.233,0.061l0.232,0.064l0.231,0.066l0.229,0.068l0.227,0.07l0.226,0.072l0.224,0.074l0.223,0.076l0.221,0.078l0.22,0.08l0.218,0.082l0.217,0.084l0.215,0.086l0.213,0.088l0.211,0.089l0.21,0.092l0.209,0.094l0.206,0.095l0.205,0.097l0.203,0.099l0.202,0.101l0.199,0.102l0.198,0.104l0.197,0.106l0.194,0.107l0.193,0.11l0.191,0.11l0.189,0.112l0.188,0.114l0.185,0.116l0.184,0.116l0.182,0.119l0.18,0.119l0.178,0.121l0.177,0.123l0.175,0.124l0.172,0.125l0.171,0.126l0.169,0.128l0.168,0.129l0.165,0.13l0.164,0.131l0.161,0.132l0.161,0.134l0.157,0.134l0.157,0.135l0.154,0.137l0.153,0.137l0.15,0.139l0.149,0.139l0.147,0.14l0.145,0.141l0.144,0.142l0.141,0.143l0.14,0.143l0.138,0.145l0.137,0.145l0.134,0.145l0.133,0.146l0.131,0.147l0.129,0.147l0.127,0.148l0.126,0.149l0.124,0.149l0.122,0.15l0.121,0.15l0.119,0.15l0.117,0.151l0.116,0.151l0.114,0.152l0.112,0.152l0.11,0.152l0.11,0.152l0.107,0.153l0.106,0.153l0.105,0.154l0.102,0.153l0.102,0.154l0.099,0.153l0.098,0.154l0.097,0.154l0.095,0.154l0.094,0.155l0.092,0.154l0.091,0.155l0.09,0.154l0.088,0.154l0.086,0.154l0.086,0.155l0.083,0.154l0.083,0.154l0.081,0.154l0.08,0.154l0.079,0.154l0.153,0.308l0.148,0.306l0.143,0.306l0.138,0.305l0.134,0.303l0.128,0.303l0.125,0.301l0.063,0.158l0.115,0.291l0.113,0.297l0.109,0.296l0.106,0.293l0.101,0.292l0.097,0.29l0.093,0.288l0.09,0.285l0.086,0.283l0.083,0.281l0.079,0.277l0.076,0.276l0.072,0.272l0.07,0.27l0.066,0.267l0.063,0.263l0.061,0.26l0.057,0.257l0.055,0.254l0.052,0.25l0.05,0.247l0.047,0.243l0.044,0.239l0.042,0.235l0.04,0.231l0.038,0.227l0.035,0.223l0.033,0.219l0.032,0.214l0.029,0.21l0.027,0.205l0.026,0.2l0.024,0.196l0.022,0.19l0.039,0.367l0.035,0.352l0.027,0.316l0.023,0.3l0.019,0.278l0.014,0.253l0.011,0.229l0.008,0.202l0.006,0.175l0.005,0.272l0.042,6.339l-12.505,0.082l-0.041,-6.281l0,-0.019l-0.001,-0.049l-0.003,-0.073l-0.004,-0.095l-0.005,-0.118l-0.008,-0.14l-0.011,-0.16l-0.014,-0.179l-0.018,-0.205l-0.009,-0.098l-0.011,-0.109l-0.011,-0.113l-0.013,-0.118l-0.015,-0.121l-0.015,-0.125l-0.016,-0.128l-0.018,-0.132l-0.019,-0.135l-0.02,-0.138l-0.021,-0.141l-0.023,-0.144l-0.024,-0.147l-0.026,-0.149l-0.027,-0.152l-0.029,-0.154l-0.03,-0.157l-0.032,-0.159l-0.034,-0.16l-0.035,-0.162l-0.036,-0.164l-0.039,-0.166l-0.04,-0.168l-0.042,-0.168l-0.044,-0.169l-0.045,-0.171l-0.047,-0.172l-0.049,-0.172l-0.051,-0.173l-0.053,-0.174l-0.055,-0.174l-0.057,-0.174l-0.058,-0.175l-0.061,-0.174l-0.062,-0.175l-0.064,-0.174l-0.067,-0.174l-0.071,-0.181l-0.032,-0.079l-0.035,-0.086l-0.036,-0.086l-0.036,-0.086l-0.037,-0.086l-0.037,-0.086l-0.038,-0.085l-0.039,-0.085l-0.038,-0.085l-0.04,-0.085l-0.039,-0.084l-0.041,-0.084l-0.04,-0.084l-0.042,-0.083l-0.041,-0.083l-0.043,-0.083l-0.042,-0.082l-0.043,-0.082l-0.044,-0.082l-0.044,-0.081l-0.045,-0.081l-0.045,-0.08l-0.046,-0.08l-0.046,-0.08l-0.046,-0.079l-0.047,-0.079l-0.048,-0.077l-0.048,-0.078l-0.048,-0.077l-0.049,-0.077l-0.05,-0.076l-0.05,-0.076l-0.05,-0.076l-0.051,-0.074l-0.051,-0.074l-0.052,-0.074l-0.052,-0.073l-0.053,-0.072l-0.053,-0.072l-0.054,-0.072l-0.054,-0.071l-0.054,-0.07l-0.056,-0.07l-0.055,-0.069l-0.056,-0.068l-0.057,-0.068l-0.057,-0.067l-0.057,-0.067l-0.059,-0.067l-0.058,-0.065l-0.059,-0.065l-0.059,-0.065l-0.06,-0.063l-0.061,-0.064l-0.061,-0.062l-0.061,-0.062l-0.063,-0.062l-0.062,-0.06l-0.063,-0.061l-0.064,-0.059l-0.064,-0.059l-0.065,-0.059l-0.065,-0.057l-0.067,-0.058l-0.066,-0.057l-0.067,-0.055l-0.068,-0.056l-0.068,-0.055l-0.07,-0.054l-0.069,-0.054l-0.071,-0.053l-0.071,-0.053l-0.072,-0.052l-0.072,-0.051l-0.074,-0.051l-0.074,-0.05l-0.074,-0.05l-0.076,-0.049l-0.076,-0.049l-0.078,-0.048l-0.078,-0.047l-0.079,-0.047l-0.08,-0.046l-0.08,-0.046l-0.082,-0.045l-0.083,-0.044l-0.083,-0.044l-0.085,-0.044l-0.086,-0.043l-0.087,-0.042l-0.087,-0.042l-0.089,-0.041l-0.09,-0.04l-0.092,-0.04l-0.092,-0.039l-0.094,-0.039l-0.095,-0.038l-0.096,-0.037l-0.097,-0.037l-0.099,-0.036l-0.1,-0.035l-0.102,-0.035l-0.102,-0.033l-0.105,-0.034l-0.105,-0.032l-0.108,-0.032l-0.108,-0.031l-0.111,-0.03l-0.111,-0.03l-0.114,-0.028l-0.115,-0.028l-0.116,-0.027l-0.119,-0.027l-0.12,-0.025l-0.121,-0.024l-0.124,-0.024l-0.125,-0.023l-0.127,-0.021l-0.128,-0.021l-0.131,-0.02l-0.133,-0.018l-0.134,-0.018l-0.136,-0.016l-0.138,-0.016l-0.14,-0.014l-0.142,-0.014l-0.144,-0.012l-0.145,-0.011l-0.148,-0.01l-0.15,-0.008l-0.152,-0.007l-0.154,-0.007l-0.156,-0.004l-0.158,-0.004l-0.16,-0.002l-6.442,-0.027l0.054,-12.505l6.495,0.028Z"/><path d="M213.612,111.335l0.354,0.003l0.357,0.007l0.36,0.01l0.362,0.012l0.365,0.016l0.368,0.019l0.371,0.022l0.373,0.025l0.376,0.028l0.379,0.032l0.382,0.034l0.384,0.038l0.388,0.04l0.39,0.044l0.394,0.047l0.396,0.051l0.399,0.053l0.403,0.057l0.405,0.059l0.409,0.063l0.411,0.067l0.415,0.069l0.418,0.073l0.421,0.076l0.424,0.079l0.427,0.083l0.431,0.086l0.434,0.089l0.437,0.093l0.441,0.096l1.018,0.228l1.425,0.625l1.208,1.047l0.655,0.859l0.354,0.625l0.21,0.468l0.158,0.425l0.124,0.428l0.079,0.351l0.047,0.262l0.032,0.21l0.022,0.177l0.017,0.157l0.014,0.147l0.012,0.138l0.01,0.144l0.016,0.248l0.013,0.264l0.012,0.272l0.009,0.283l0.009,0.295l0.007,0.309l0.006,0.324l0.006,0.338l0.005,0.351l0.003,0.365l0.003,0.377l0.003,0.393l0.003,0.811l0,0.854l-0.002,0.888l-0.004,0.914l-0.005,0.935l-0.007,0.949l-0.008,0.954l-0.01,0.953l-0.01,0.944l-0.011,0.929l-0.011,0.908l-0.024,1.713l-0.023,1.535l-0.021,1.296l-0.017,1.001l-0.124,7.011l-38.674,0l-1.218,-4.842l-0.039,-0.161l-0.044,-0.196l-0.052,-0.233l-0.054,-0.262l-0.031,-0.157l-0.031,-0.158l-0.031,-0.166l-0.032,-0.175l-0.032,-0.183l-0.032,-0.191l-0.033,-0.199l-0.032,-0.206l-0.032,-0.215l-0.032,-0.222l-0.031,-0.229l-0.03,-0.237l-0.03,-0.244l-0.028,-0.25l-0.027,-0.257l-0.026,-0.264l-0.024,-0.271l-0.022,-0.277l-0.021,-0.282l-0.018,-0.29l-0.017,-0.295l-0.013,-0.3l-0.012,-0.306l-0.008,-0.313l-0.005,-0.316l-0.002,-0.323l0.001,-0.319l0.002,-0.174l0.003,-0.166l0.004,-0.168l0.005,-0.17l0.005,-0.171l0.007,-0.171l0.008,-0.173l0.009,-0.174l0.01,-0.175l0.011,-0.175l0.013,-0.178l0.013,-0.178l0.015,-0.179l0.016,-0.181l0.017,-0.181l0.019,-0.182l0.02,-0.183l0.021,-0.184l0.023,-0.185l0.024,-0.186l0.026,-0.187l0.027,-0.188l0.029,-0.189l0.03,-0.189l0.032,-0.19l0.033,-0.191l0.035,-0.192l0.037,-0.193l0.038,-0.193l0.041,-0.194l0.042,-0.195l0.044,-0.196l0.046,-0.196l0.047,-0.196l0.05,-0.198l0.051,-0.198l0.054,-0.198l0.056,-0.199l0.057,-0.199l0.06,-0.201l0.062,-0.2l0.065,-0.2l0.066,-0.202l0.069,-0.201l0.071,-0.202l0.074,-0.202l0.076,-0.203l0.078,-0.202l0.081,-0.203l0.083,-0.203l0.086,-0.203l0.088,-0.203l0.091,-0.203l0.094,-0.203l0.097,-0.203l0.099,-0.202l0.102,-0.203l0.105,-0.203l0.107,-0.202l0.111,-0.201l0.113,-0.202l0.116,-0.201l0.12,-0.201l0.122,-0.2l0.125,-0.199l0.129,-0.199l0.131,-0.198l0.135,-0.197l0.137,-0.197l0.141,-0.195l0.144,-0.195l0.147,-0.194l0.15,-0.192l0.154,-0.192l0.157,-0.19l0.159,-0.189l0.164,-0.187l0.166,-0.187l0.17,-0.184l0.172,-0.184l0.176,-0.181l0.179,-0.18l0.183,-0.178l0.186,-0.176l0.188,-0.175l0.192,-0.172l0.196,-0.171l0.198,-0.168l0.202,-0.167l0.204,-0.164l0.208,-0.162l0.211,-0.159l0.213,-0.158l0.217,-0.155l0.22,-0.152l0.223,-0.15l0.226,-0.148l0.228,-0.145l0.232,-0.142l0.234,-0.14l0.238,-0.137l0.24,-0.134l0.242,-0.132l0.246,-0.129l0.248,-0.126l0.251,-0.123l0.254,-0.12l0.256,-0.117l0.259,-0.115l0.262,-0.111l0.263,-0.109l0.267,-0.106l0.269,-0.102l0.272,-0.1l0.274,-0.097l0.276,-0.093l0.279,-0.091l0.282,-0.088l0.284,-0.085l0.286,-0.081l0.289,-0.079l0.29,-0.075l0.294,-0.073l0.296,-0.069l0.298,-0.067l0.3,-0.063l0.303,-0.061l0.306,-0.057l0.307,-0.054l0.31,-0.051l0.312,-0.049l0.315,-0.045l0.317,-0.042l0.32,-0.039l0.322,-0.036l0.324,-0.033l0.327,-0.03l0.329,-0.027l0.332,-0.024l0.334,-0.021l0.336,-0.017l0.339,-0.015l0.342,-0.012l0.344,-0.009l0.347,-0.005l0.349,-0.003l0.352,0.001Zm-0.554,12.506l-0.235,0.004l-0.231,0.006l-0.227,0.007l-0.223,0.01l-0.22,0.012l-0.215,0.013l-0.211,0.015l-0.208,0.017l-0.203,0.019l-0.199,0.02l-0.196,0.022l-0.192,0.024l-0.188,0.025l-0.185,0.026l-0.181,0.028l-0.177,0.029l-0.173,0.031l-0.169,0.032l-0.167,0.033l-0.162,0.034l-0.159,0.036l-0.156,0.036l-0.151,0.038l-0.149,0.038l-0.145,0.04l-0.142,0.04l-0.139,0.042l-0.135,0.042l-0.133,0.043l-0.129,0.044l-0.126,0.044l-0.123,0.045l-0.12,0.046l-0.117,0.046l-0.114,0.047l-0.112,0.048l-0.109,0.048l-0.106,0.049l-0.103,0.049l-0.101,0.049l-0.098,0.05l-0.096,0.05l-0.094,0.051l-0.091,0.051l-0.089,0.052l-0.087,0.051l-0.085,0.053l-0.083,0.052l-0.081,0.053l-0.078,0.053l-0.077,0.053l-0.076,0.054l-0.073,0.054l-0.072,0.055l-0.07,0.054l-0.069,0.056l-0.067,0.055l-0.066,0.056l-0.064,0.056l-0.063,0.057l-0.062,0.057l-0.06,0.057l-0.059,0.058l-0.059,0.058l-0.057,0.059l-0.056,0.06l-0.055,0.059l-0.054,0.061l-0.053,0.061l-0.052,0.061l-0.051,0.062l-0.05,0.063l-0.05,0.064l-0.048,0.064l-0.048,0.064l-0.047,0.066l-0.047,0.066l-0.045,0.067l-0.045,0.067l-0.044,0.069l-0.044,0.069l-0.043,0.07l-0.042,0.071l-0.041,0.071l-0.041,0.073l-0.04,0.073l-0.039,0.074l-0.039,0.075l-0.038,0.075l-0.038,0.077l-0.036,0.077l-0.036,0.078l-0.036,0.08l-0.035,0.079l-0.034,0.081l-0.033,0.082l-0.033,0.082l-0.032,0.083l-0.032,0.084l-0.031,0.085l-0.03,0.085l-0.029,0.087l-0.029,0.086l-0.028,0.089l-0.028,0.088l-0.026,0.089l-0.026,0.09l-0.026,0.091l-0.024,0.091l-0.024,0.092l-0.023,0.092l-0.023,0.094l-0.022,0.093l-0.021,0.094l-0.02,0.095l-0.02,0.095l-0.019,0.096l-0.019,0.096l-0.017,0.097l-0.017,0.097l-0.017,0.097l-0.015,0.098l-0.015,0.098l-0.014,0.098l-0.014,0.099l-0.013,0.099l-0.012,0.099l-0.011,0.099l-0.011,0.099l-0.01,0.1l-0.01,0.1l-0.009,0.099l-0.008,0.1l-0.008,0.1l-0.007,0.099l-0.006,0.101l-0.006,0.099l-0.005,0.099l-0.004,0.1l-0.004,0.099l-0.004,0.1l-0.002,0.098l-0.001,0.023l15.905,0l0.003,-0.216l0.011,-0.896l0.011,-0.918l0.01,-0.932l0.009,-0.939l0.009,-0.939l0.006,-0.93l0.006,-0.915l0.003,-0.891l0.002,-0.859l0,-0.345l-0.15,-0.021l-0.315,-0.042l-0.31,-0.039l-0.305,-0.037l-0.302,-0.034l-0.297,-0.031l-0.293,-0.029l-0.289,-0.026l-0.285,-0.023l-0.28,-0.021l-0.276,-0.019l-0.273,-0.016l-0.267,-0.014l-0.264,-0.011l-0.26,-0.01l-0.256,-0.006l-0.251,-0.005l-0.247,-0.003l-0.243,0l-0.24,0.002Z"/></g><g id="t"><path d="M253.12,125.951l-0.016,0.209l0,0.012l-0.001,0.033l0.003,0.172l0.016,0.265l0.029,0.278l0.037,0.251l0.037,0.201l0.045,0.211l0.054,0.217l0.064,0.222l0.073,0.226l0.084,0.226l0.094,0.227l0.069,0.15l0.074,0.15l0.121,0.223l0.133,0.221l0.147,0.218l0.162,0.217l0.178,0.214l0.163,0.178l0.177,0.177l0.194,0.176l0.212,0.177l0.185,0.141l0.2,0.141l0.215,0.141l0.232,0.14l0.25,0.139l0.201,0.104l0.212,0.102l0.224,0.101l0.237,0.1l0.251,0.098l0.263,0.095l0.279,0.093l0.293,0.09l0.307,0.087l0.324,0.083l0.224,0.053l0.232,0.051l0.239,0.05l0.246,0.046l0.254,0.045l0.261,0.042l0.269,0.039l0.277,0.037l0.284,0.033l0.293,0.031l0.3,0.028l0.308,0.024l0.317,0.021l0.325,0.017l0.333,0.014l0.341,0.01l0.35,0.006l0.178,0.002l6.451,0.018l-0.036,12.505l-6.487,-0.019l-0.25,-0.002l-0.249,-0.003l-0.248,-0.005l-0.246,-0.007l-0.244,-0.008l-0.244,-0.009l-0.241,-0.011l-0.241,-0.012l-0.238,-0.013l-0.238,-0.015l-0.236,-0.017l-0.235,-0.017l-0.233,-0.02l-0.232,-0.02l-0.23,-0.022l-0.229,-0.023l-0.228,-0.025l-0.227,-0.026l-0.225,-0.028l-0.223,-0.028l-0.222,-0.031l-0.222,-0.031l-0.219,-0.033l-0.218,-0.034l-0.217,-0.036l-0.216,-0.037l-0.214,-0.038l-0.213,-0.04l-0.212,-0.041l-0.21,-0.042l-0.209,-0.044l-0.208,-0.045l-0.206,-0.047l-0.205,-0.047l-0.204,-0.049l-0.202,-0.051l-0.202,-0.051l-0.199,-0.053l-0.199,-0.055l-0.197,-0.055l-0.196,-0.057l-0.195,-0.058l-0.193,-0.06l-0.192,-0.061l-0.191,-0.062l-0.189,-0.063l-0.188,-0.065l-0.187,-0.066l-0.185,-0.067l-0.184,-0.068l-0.183,-0.07l-0.181,-0.071l-0.18,-0.072l-0.179,-0.073l-0.177,-0.075l-0.176,-0.076l-0.175,-0.077l-0.174,-0.078l-0.171,-0.079l-0.171,-0.081l-0.169,-0.082l-0.168,-0.082l-0.166,-0.084l-0.166,-0.086l-0.163,-0.086l-0.163,-0.087l-0.161,-0.089l-0.159,-0.089l-0.158,-0.091l-0.157,-0.092l-0.155,-0.093l-0.154,-0.093l-0.153,-0.096l-0.15,-0.095l-0.15,-0.097l-0.148,-0.098l-0.146,-0.099l-0.146,-0.1l-0.143,-0.1l-0.142,-0.102l-0.141,-0.102l-0.139,-0.104l-0.138,-0.104l-0.136,-0.105l-0.135,-0.106l-0.133,-0.107l-0.132,-0.108l-0.13,-0.108l-0.129,-0.109l-0.127,-0.11l-0.126,-0.11l-0.124,-0.111l-0.123,-0.112l-0.121,-0.113l-0.12,-0.113l-0.118,-0.113l-0.117,-0.115l-0.115,-0.115l-0.113,-0.115l-0.113,-0.116l-0.11,-0.117l-0.109,-0.117l-0.108,-0.117l-0.106,-0.118l-0.105,-0.118l-0.103,-0.119l-0.101,-0.118l-0.1,-0.12l-0.099,-0.12l-0.097,-0.12l-0.095,-0.12l-0.094,-0.12l-0.093,-0.121l-0.091,-0.121l-0.09,-0.121l-0.088,-0.122l-0.087,-0.121l-0.086,-0.122l-0.084,-0.122l-0.082,-0.121l-0.081,-0.122l-0.08,-0.122l-0.078,-0.122l-0.078,-0.122l-0.075,-0.122l-0.074,-0.122l-0.073,-0.122l-0.072,-0.122l-0.07,-0.121l-0.069,-0.122l-0.073,-0.132l-0.126,-0.232l-0.126,-0.242l-0.121,-0.241l-0.117,-0.24l-0.111,-0.239l-0.107,-0.238l-0.102,-0.236l-0.098,-0.235l-0.093,-0.233l-0.089,-0.232l-0.085,-0.23l-0.081,-0.228l-0.077,-0.226l-0.073,-0.223l-0.069,-0.222l-0.066,-0.219l-0.062,-0.217l-0.059,-0.215l-0.055,-0.211l-0.052,-0.21l-0.049,-0.206l-0.046,-0.204l-0.043,-0.2l-0.04,-0.198l-0.038,-0.195l-0.035,-0.192l-0.032,-0.188l-0.03,-0.185l-0.027,-0.182l-0.026,-0.179l-0.023,-0.174l-0.021,-0.172l-0.019,-0.168l-0.017,-0.165l-0.016,-0.16l-0.013,-0.156l-0.013,-0.154l-0.01,-0.149l-0.009,-0.144l-0.009,-0.153l-0.011,-0.257l-0.007,-0.252l-0.003,-0.235l0,-0.217l0.002,-0.198l0.005,-0.18l0.006,-0.16l0.007,-0.139l0.008,-0.126l-0.012,0.156l0,-81.089l12.505,0l0,81.564Z"/><rect x="223.33" y="69.707" width="47.076" height="12.505"/></g></g></g></svg>