<?xml version="1.0" encoding="UTF-8" standalone="no"?><!DOCTYPE svg PUBLIC "-//W3C//DTD SVG 1.1//EN" "http://www.w3.org/Graphics/SVG/1.1/DTD/svg11.dtd"><svg width="100%" height="100%" viewBox="0 0 51 50" version="1.1" xmlns="http://www.w3.org/2000/svg" xmlns:xlink="http://www.w3.org/1999/xlink" xml:space="preserve" style="fill-rule:evenodd;clip-rule:evenodd;stroke-linejoin:round;stroke-miterlimit:1.41421;"><rect id="restore" x="0.844" y="0.114" width="48.54" height="48.54" style="fill:none;"/><g id="restore1"><path d="M47.107,35.622l-10.39,0l0,10.39l-33.596,0l0,-33.597l10.39,0l0,-10.39l33.596,0l0,33.597Zm-31.169,-31.17l0,10.39l-10.39,0l0,28.743l28.742,0l0,-10.39l10.39,0l0,-28.743l-28.742,0Z"/><path d="M36.718,46.012l-33.597,0l0,-33.597l33.597,0l0,33.597Zm-31.17,-31.17l0,28.743l28.743,0l0,-28.743l-28.743,0Z"/></g></svg>